<?xml version="1.0" encoding="iso-8859-1"?>
<!-- Generator: Adobe Illustrator 19.0.0, SVG Export Plug-In . SVG Version: 6.00 Build 0)  -->
<svg version="1.1" id="Layer_1" xmlns="http://www.w3.org/2000/svg" xmlns:xlink="http://www.w3.org/1999/xlink" x="0px" y="0px"
	 viewBox="0 0 496.159 496.159" style="enable-background:new 0 0 496.159 496.159;" xml:space="preserve">
<path style="fill:#AECF00;" d="M248.083,0.003C111.071,0.003,0,111.063,0,248.085c0,137.001,111.07,248.07,248.083,248.07
	c137.006,0,248.076-111.069,248.076-248.07C496.159,111.062,385.089,0.003,248.083,0.003z"/>
<path style="fill:#608C13;" d="M134.399,72.418c10.633,35.475,64.43,62.396,64.43,62.396l0.804-16.101
	C184.413,93.829,134.399,72.418,134.399,72.418z"/>
<path style="fill:#6FA519;" d="M212.54,124.301c-1.279-27.117-31.065-79.054-31.065-79.054
	c-13.705,31.664,17.599,78.882,24.451,88.618c0.82,1.164,4.142-0.195,5.794-3.002C212.891,128.871,212.54,124.301,212.54,124.301z"
	/>
<path style="fill:#5E9B0E;" d="M212.423,128.051l-13.735-6.074c-28.809-5.176-79.987-0.801-79.987-0.801
	c28.207,26.097,84.932,20.705,91.847,11.915C212.658,130.409,212.423,128.051,212.423,128.051z"/>
<path style="fill:#6FA519;" d="M126.649,353.797c11.686,38.992,70.816,68.582,70.816,68.582l0.884-17.697
	C181.62,377.33,126.649,353.797,126.649,353.797z"/>
<path style="fill:#608C13;" d="M212.535,410.823c-1.406-29.806-34.144-86.892-34.144-86.892
	c-15.063,34.805,19.343,86.7,26.874,97.403c0.901,1.28,4.553-0.214,6.368-3.298C212.921,415.848,212.535,410.823,212.535,410.823z"
	/>
<g>
	<path style="fill:#5E9B0E;" d="M212.406,414.943l-15.096-6.676c-31.666-5.689-87.917-0.879-87.917-0.879
		c31.004,28.683,93.351,22.757,100.953,13.096C212.664,417.537,212.406,414.943,212.406,414.943z"/>
	<path style="fill:#5E9B0E;" d="M298.598,239.293l1.03,20.619c0,0,68.892-34.477,82.508-79.904
		C382.136,180.008,318.09,207.426,298.598,239.293z"/>
</g>
<path style="fill:#6FA519;" d="M299.808,243.472l-17.588,7.778c0,0-0.301,3.02,2.402,6.454
	c8.855,11.257,81.497,18.161,117.618-15.257C402.24,242.447,336.702,236.842,299.808,243.472z"/>
<path style="fill:#608C13;" d="M321.852,145.213c0,0-38.144,66.51-39.782,101.234c0,0-0.45,5.854,1.051,8.406
	c2.116,3.594,6.369,5.336,7.421,3.842C299.314,246.227,339.402,185.761,321.852,145.213z"/>
<g>
	<path style="fill:#5E9B0E;" d="M220.42,330.448c0,0,0.591,0.126,1.67,0.321C221.014,330.574,220.42,330.448,220.42,330.448z"/>
	<path style="fill:#5E9B0E;" d="M247.619,333.115l-0.459,163.028c0.309,0.001,0.615,0.012,0.924,0.012
		c7.41,0,14.738-0.345,21.983-0.98l-0.001-64.36l0.003-82.754c0,0,4.361,1.219,4.361-17.612
		C274.43,330.448,262.211,333.115,247.619,333.115z"/>
</g>
<g>
	<path style="fill:#608C13;" d="M222.09,330.769c3.889,0.71,14.098,2.346,25.529,2.346
		C235.945,333.064,225.927,331.469,222.09,330.769z"/>
	<path style="fill:#608C13;" d="M222.09,330.769c-1.08-0.195-1.67-0.321-1.67-0.321c0,16.105,4.367,18.038,4.367,18.038
		l-0.002,81.33v65.242c7.37,0.686,14.832,1.058,22.375,1.085l0.459-163.028C236.188,333.115,225.979,331.479,222.09,330.769z"/>
</g>
<path style="fill:#5E9B0E;" d="M270.069,311.041V160.98c0,0,4.361,1.771,4.361-15.16c0,0-13.712,2.398-26.831,2.398l-0.509,180.5
	c14.368,0,27.34-2.545,27.34-2.545C274.43,309.801,270.069,311.041,270.069,311.041z"/>
<path style="fill:#608C13;" d="M220.42,145.82c0,14.48,4.367,15.545,4.367,15.545l2.284,73.794v75.882c0,0-6.65-2.352-6.65,15.133
	c0,0,12.302,2.545,26.67,2.545l0.509-180.5C234.479,148.219,220.42,145.82,220.42,145.82z"/>
<path style="fill:#5E9B0E;" d="M270.069,130.599V0.983c-7.245-0.636-14.575-0.98-21.985-0.98c-0.169,0-0.337,0.006-0.507,0.007
	l-0.534,144.831c16.388,0,27.388-2.188,27.388-2.188C274.43,128.579,270.069,130.599,270.069,130.599z"/>
<path style="fill:#608C13;" d="M224.207,1.151v129.448c0,0-4.477-2.976-4.477,12.055c0,0,10.92,2.188,27.312,2.188l0.534-144.831
	C239.694,0.025,231.901,0.417,224.207,1.151z"/>
<g>
</g>
<g>
</g>
<g>
</g>
<g>
</g>
<g>
</g>
<g>
</g>
<g>
</g>
<g>
</g>
<g>
</g>
<g>
</g>
<g>
</g>
<g>
</g>
<g>
</g>
<g>
</g>
<g>
</g>
</svg>
